<?xml version="1.0" standalone="no"?>
<!DOCTYPE svg PUBLIC "-//W3C//DTD SVG 1.1//EN" "http://www.w3.org/Graphics/SVG/1.1/DTD/svg11.dtd" >
<svg xmlns="http://www.w3.org/2000/svg">
<metadata>Generated by IcoMoon</metadata>
<defs>
<font id="icomoon" horiz-adv-x="1024">
<font-face units-per-em="1024" ascent="960" descent="-64" />
<missing-glyph horiz-adv-x="1024" />
<glyph unicode="&#x20;" horiz-adv-x="512" d="" />
<glyph unicode="&#xe900;" glyph-name="cart, shopping, ecommerce, buy, purchase" d="M1021.248 787.2l-93.248-371.2c0-4.448-0.896-8.64-2.496-12.448-3.264-7.68-9.376-13.824-17.024-17.056-3.84-1.632-8.064-2.496-12.48-2.496h-608l25.6-128h550.4c17.696 0 32-14.304 32-32s-14.304-32-32-32h-576c-17.696 0-32 14.304-32 32l-121.6 608h-102.4c-17.664 0-32 14.336-32 32s14.336 32 32 32h128c17.696 0 32-14.336 32-32l6.4-32h793.6c17.696 0 32-14.336 32-32 0-4.576-1.024-8.864-2.752-12.8zM275.2 448h108.8v320h-172.8l64-320zM576 768h-160v-320h160v320zM768 768h-160v-320h160v320zM800 768v-320h72.096l81.056 320h-153.152zM352 128c53.024 0 96-43.008 96-96s-42.976-96-96-96-96 43.008-96 96 42.976 96 96 96zM352 0c17.696 0 32 14.304 32 32s-14.304 32-32 32-32-14.304-32-32 14.304-32 32-32zM800 128c53.024 0 96-43.008 96-96s-42.976-96-96-96-96 43.008-96 96 42.976 96 96 96zM800 0c17.696 0 32 14.304 32 32s-14.304 32-32 32-32-14.304-32-32 14.304-32 32-32z" />
<glyph unicode="&#xe901;" glyph-name="shopping-cart" d="M204.8 870.4h819.2l-153.6-460.8h-665.6c-28.277 0-51.2-22.923-51.2-51.2s22.923-51.2 51.2-51.2v0h665.6v-102.4h-665.6c-84.831 0-153.6 68.769-153.6 153.6s68.769 153.6 153.6 153.6v0h16.896l-68.096 204.8-51.2 153.6h-102.4v102.4h153.6c28.277 0 51.2-22.923 51.2-51.2v0-51.2zM256-51.2c-56.554 0-102.4 45.846-102.4 102.4s45.846 102.4 102.4 102.4v0c56.554 0 102.4-45.846 102.4-102.4s-45.846-102.4-102.4-102.4v0zM768-51.2c-56.554 0-102.4 45.846-102.4 102.4s45.846 102.4 102.4 102.4v0c56.554 0 102.4-45.846 102.4-102.4s-45.846-102.4-102.4-102.4v0z" />
<glyph unicode="&#xe902;" glyph-name="search" d="M621.668 306.332c-44.476-31.692-98.895-50.332-157.668-50.332-150.221 0-272 121.779-272 272s121.779 272 272 272c150.221 0 272-121.779 272-272 0-58.773-18.641-113.192-50.332-157.668l178.714-178.714c17.606-17.606 17.46-45.778-0.006-63.244l-0.75-0.75c-17.421-17.421-45.781-17.469-63.244-0.006l-178.714 178.714zM464 320c114.875 0 208 93.125 208 208s-93.125 208-208 208c-114.875 0-208-93.125-208-208s93.125-208 208-208v0z" />
<glyph unicode="&#xe903;" glyph-name="arrow_drop_down" d="M298 512.667h428l-214-214z" />
<glyph unicode="&#xe904;" glyph-name="search1" d="M621.668 306.332c-44.476-31.692-98.895-50.332-157.668-50.332-150.221 0-272 121.779-272 272s121.779 272 272 272c150.221 0 272-121.779 272-272 0-75.111-30.445-143.111-79.667-192.333l191.916-191.916c8.802-8.802 8.588-22.915-0.249-31.751-8.898-8.898-23.052-8.948-31.751-0.249l-194.581 194.581zM464 288c132.548 0 240 107.452 240 240s-107.452 240-240 240c-132.548 0-240-107.452-240-240s107.452-240 240-240v0z" />
<glyph unicode="&#xe905;" glyph-name="mail-envelope-closed" d="M170.080 663.235l247.52-215.235-247.581-215.287c-6.206 5.878-10.019 14.235-10.019 23.507v383.562c0 9.253 3.874 17.582 10.080 23.454zM885.981 663.287c6.206-5.878 10.019-14.235 10.019-23.507v-383.562c0-9.252-3.874-17.582-10.080-23.454l-247.52 215.235 247.581 215.287zM614.459 427.181l233.541-203.181h-640l233.541 203.181 86.459-75.181 86.459 75.181zM192.115 704c-35.41 0-64.115-28.624-64.115-63.81v-384.38c0-35.241 28.472-63.81 64.115-63.81h671.77c35.41 0 64.115 28.624 64.115 63.81v384.38c0 35.241-28.472 63.81-64.115 63.81h-671.77zM528 393.6l-320 278.4h640l-320-278.4z" />
<glyph unicode="&#xe906;" d="M0 960h1024v-1024h-1024v1024z" />
<glyph unicode="&#xe907;" glyph-name="close1" d="M512 533.197l-362.035 362.035-72.397-72.397 362.035-362.035-362.035-362.035 72.397-72.397 362.035 362.035 362.035-362.035 72.397 72.397-362.035 362.035 362.035 362.035-72.397 72.397-362.035-362.035z" />
<glyph unicode="&#xe908;" glyph-name="dots-horizontal-triple" d="M512 358.4c-56.554 0-102.4 45.846-102.4 102.4s45.846 102.4 102.4 102.4v0c56.554 0 102.4-45.846 102.4-102.4s-45.846-102.4-102.4-102.4v0zM512 665.6c-56.554 0-102.4 45.846-102.4 102.4s45.846 102.4 102.4 102.4v0c56.554 0 102.4-45.846 102.4-102.4s-45.846-102.4-102.4-102.4v0zM512 51.2c-56.554 0-102.4 45.846-102.4 102.4s45.846 102.4 102.4 102.4v0c56.554 0 102.4-45.846 102.4-102.4s-45.846-102.4-102.4-102.4v0z" />
<glyph unicode="&#xe909;" d="M925.54 448c0-229.496-186.044-415.54-415.54-415.54s-415.54 186.044-415.54 415.54c0 229.496 186.044 415.54 415.54 415.54s415.54-186.044 415.54-415.54z" />
<glyph unicode="&#xe90a;" d="M898.18 447.92c0-214.739-174.081-388.82-388.82-388.82s-388.82 174.081-388.82 388.82c0 214.739 174.081 388.82 388.82 388.82s388.82-174.081 388.82-388.82z" />
<glyph unicode="&#xe90b;" d="M642.68 553.1c0-10.372-8.408-18.78-18.78-18.78s-18.78 8.408-18.78 18.78c0 10.372 8.408 18.78 18.78 18.78s18.78-8.408 18.78-18.78z" />
<glyph unicode="&#xe90c;" d="M626.88 644h-224.4c-43.46 0-80.48-35.88-80.48-79.36v-224.4c0-43.46 37.020-78.26 80.48-78.26h224.4c43.48 0 77.12 34.78 77.12 78.26v224.4c0 43.48-33.64 79.36-77.12 79.36zM668 351.16c0.003-0.228 0.005-0.496 0.005-0.765 0-30.044-24.356-54.4-54.4-54.4-0.262 0-0.524 0.002-0.785 0.006h-196.301c-31.060 0-56.52 24.12-56.52 55.16v196.36c0.125 31.157 25.36 56.378 56.51 56.48h196.33c31.16 0 55.16-25.44 55.16-56.48v-196.34z" />
<glyph unicode="&#xe90d;" d="M513 563.080c-61.248 0-110.9-49.652-110.9-110.9s49.652-110.9 110.9-110.9c61.248 0 110.9 49.652 110.9 110.9v0c0 61.248-49.652 110.9-110.9 110.9v0zM513 380c-39.864 0-72.18 32.316-72.18 72.18s32.316 72.18 72.18 72.18c39.864 0 72.18-32.316 72.18-72.18v0c-0.011-39.859-32.321-72.169-72.179-72.18h-0.001z" />
<glyph unicode="&#xe90e;" d="M256 896h512c106.039 0 192-85.961 192-192v-512c0-106.039-85.961-192-192-192h-512c-106.039 0-192 85.961-192 192v512c0 106.039 85.961 192 192 192z" />
<glyph unicode="&#xe90f;" d="M256 896h512c106.039 0 192-85.961 192-192v-512c0-106.039-85.961-192-192-192h-512c-106.039 0-192 85.961-192 192v512c0 106.039 85.961 192 192 192z" />
<glyph unicode="&#xe910;" d="M256 896h512c106.039 0 192-85.961 192-192v-512c0-106.039-85.961-192-192-192h-512c-106.039 0-192 85.961-192 192v512c0 106.039 85.961 192 192 192z" />
<glyph unicode="&#xe911;" glyph-name="close" d="M512 533.197l-362.035 362.035-72.397-72.397 362.035-362.035-362.035-362.035 72.397-72.397 362.035 362.035 362.035-362.035 72.397 72.397-362.035 362.035 362.035 362.035-72.397 72.397-362.035-362.035z" />
<glyph unicode="&#xe912;" d="M736 624c0-26.509-21.491-48-48-48s-48 21.491-48 48c0 26.51 21.491 48 48 48s48-21.49 48-48z" />
<glyph unicode="&#xe913;" glyph-name="clear" d="M810 664.667l-238-238 238-238-60-60-238 238-238-238-60 60 238 238-238 238 60 60 238-238 238 238z" />
<glyph unicode="&#xe914;" glyph-name="keyboard_arrow_right" d="M366 230.667l196 196-196 196 60 60 256-256-256-256z" />
<glyph unicode="&#xe915;" glyph-name="keyboard_arrow_left" d="M658 230.667l-60-60-256 256 256 256 60-60-196-196z" />
<glyph unicode="&#xe916;" glyph-name="location1" d="M510.016-64c0 0-318.016 449.984-318.016 641.984 0 378.016 318.016 382.016 318.016 382.016s321.984-4 321.984-380c0-197.984-321.984-644-321.984-644zM512 768c-70.688 0-128-57.312-128-128s57.312-128 128-128 128 57.312 128 128-57.312 128-128 128z" />
<glyph unicode="&#xe917;" d="M512 288c-88.365 0-160 71.635-160 160s71.635 160 160 160c88.365 0 160-71.635 160-160s-71.635-160-160-160zM512 352c53.021 0 96 42.979 96 96s-42.979 96-96 96c-53.021 0-96-42.979-96-96s42.979-96 96-96z" />
<glyph unicode="&#xe918;" d="M192 460.8v-25.6c0-107.53 0-161.296 20.927-202.365 18.408-36.128 47.78-65.501 83.907-83.907 41.070-20.928 94.836-20.928 202.366-20.928h25.6c107.53 0 161.296 0 202.365 20.928 36.128 18.406 65.501 47.779 83.907 83.907 20.928 41.069 20.928 94.835 20.928 202.365v25.6c0 107.53 0 161.296-20.928 202.366-18.406 36.127-47.779 65.5-83.907 83.907-41.069 20.927-94.835 20.927-202.365 20.927h-25.6c-107.53 0-161.296 0-202.366-20.927-36.127-18.408-65.5-47.78-83.907-83.907-20.927-41.070-20.927-94.836-20.927-202.366zM499.2 704h25.6c54.822 0 92.086-0.050 120.893-2.403 28.061-2.292 42.41-6.448 52.419-11.548 24.083-12.272 43.664-31.853 55.936-55.937 5.101-10.010 9.258-24.358 11.549-52.419 2.352-28.806 2.403-66.070 2.403-120.893v-25.6c0-54.822-0.051-92.086-2.403-120.893-2.291-28.061-6.448-42.41-11.549-52.419-12.272-24.083-31.853-43.664-55.936-55.936-10.010-5.101-24.358-9.258-52.419-11.549-28.806-2.352-66.070-2.403-120.893-2.403h-25.6c-54.822 0-92.086 0.051-120.893 2.403-28.061 2.291-42.41 6.448-52.419 11.549-24.084 12.272-43.665 31.853-55.937 55.936-5.1 10.010-9.255 24.358-11.548 52.419-2.353 28.806-2.403 66.070-2.403 120.893v25.6c0 54.822 0.050 92.086 2.403 120.893 2.292 28.061 6.448 42.41 11.548 52.419 12.272 24.084 31.853 43.665 55.937 55.937 10.010 5.1 24.358 9.255 52.419 11.548 28.806 2.353 66.070 2.403 120.893 2.403z" />
<glyph unicode="&#xe919;" glyph-name="messenger-color-svgrepo-com" d="M512 960c-282.77 0-512-212.249-512-474.074 0-149.191 74.453-282.267 190.807-369.168v-180.758l174.331 95.678c46.525-12.876 95.814-19.826 146.861-19.826 282.77 0 512 212.249 512 474.074s-229.23 474.074-512 474.074v0zM562.882 321.58l-130.385 139.062-254.41-139.062 279.851 297.086 133.565-139.062 251.23 139.062-279.851-297.086z" />
<glyph unicode="&#xe91a;" d="M0 960h1024v-1024h-1024z" />
<glyph unicode="&#xe91b;" d="M250.88 322.176l2.048-5.888c-0.256 0.64-1.024 2.688-2.048 5.888zM333.952 456.448c3.712 31.872 16.256 49.664 39.808 67.968 33.792 24.704 75.904 10.752 75.904 10.752v83.072c10.24 0.256 20.48-0.384 30.592-1.92v-106.88s-42.112 13.952-75.904-10.752c-23.552-18.304-36.096-36.096-39.808-67.968-0.128-17.28 2.944-39.936 17.28-59.392-3.584 1.92-7.168 4.096-10.88 6.528-31.36 22.016-37.12 55.168-36.992 78.592zM654.464 771.84c-23.168 26.496-32 53.376-35.2 72.192h29.184s-5.76-49.408 36.608-97.92l0.64-0.64c-11.52 7.424-22.016 16.384-31.232 26.368zM795.136 696.576v-104.704s-37.248 1.536-64.896 8.832c-38.528 10.24-63.232 25.984-63.232 25.984s-17.152 11.264-18.432 12.032v-216.32c0-12.032-3.2-42.112-12.8-67.2-12.544-32.768-32-54.4-35.584-58.752 0 0-23.68-29.184-65.28-48.768-37.504-17.664-70.528-17.28-80.384-17.664 0 0-56.96-2.304-108.288 32.384-11.136 7.68-21.504 16.384-30.976 25.984l0.256-0.256c51.328-34.816 108.288-32.384 108.288-32.384 9.856 0.384 42.88 0 80.384 17.664 41.6 19.584 65.28 48.768 65.28 48.768 3.584 4.352 23.040 25.984 35.584 58.752 9.6 25.088 12.8 55.168 12.8 67.2v216.192c1.408-0.768 18.432-12.032 18.432-12.032s24.704-15.744 63.232-25.984c27.648-7.296 64.896-8.832 64.896-8.832v82.048c12.8-2.944 23.68-3.712 30.72-2.944z" />
<glyph unicode="&#xe91c;" d="M764.416 699.648v-82.048s-37.248 1.536-64.896 8.832c-38.528 10.24-63.232 25.984-63.232 25.984s-17.152 11.264-18.432 12.032v-216.32c0-12.032-3.2-42.112-12.8-67.2-12.544-32.768-32-54.4-35.584-58.752 0 0-23.68-29.184-65.28-48.768-37.504-17.664-70.528-17.28-80.384-17.664 0 0-56.96-2.304-108.288 32.384l-0.256 0.256c-5.376 5.504-10.496 11.264-15.232 17.28-16.384 20.864-26.368 45.44-28.928 52.48v0.128c-4.096 12.16-12.544 41.6-11.392 69.888 2.048 50.048 18.944 80.896 23.424 88.576 11.776 20.992 27.264 39.808 45.44 55.552 16.128 13.568 34.432 24.448 54.016 32 21.248 8.96 44.032 13.696 67.072 14.080v-83.072s-42.112 13.952-75.904-10.752c-23.552-18.304-36.096-36.096-39.808-67.968-0.128-23.424 5.632-56.576 37.12-78.72 3.712-2.432 7.296-4.608 10.88-6.528 5.504-7.424 12.16-13.952 19.84-19.328 30.848-20.352 56.576-21.76 89.6-8.576 22.016 8.832 38.528 28.672 46.208 50.816 4.864 13.824 4.736 27.648 4.736 41.984v407.808h76.8c3.2-18.816 11.904-45.696 35.2-72.192 9.344-9.984 19.84-18.944 31.232-26.368 3.328-3.712 20.608-21.632 42.88-32.768 11.392-5.76 23.552-10.112 35.968-13.056z" />
<glyph unicode="&#xe91d;" d="M240.512 383.488l1.92-5.504c-0.256 0.64-1.024 2.56-1.92 5.504z" />
<glyph unicode="&#xe91e;" glyph-name="mic" d="M480 256c88.366 0 160 71.634 160 160v384c0 88.366-71.634 160-160 160s-160-71.634-160-160v-384c0-88.366 71.636-160 160-160zM704 512v-96c0-123.71-100.29-224-224-224-123.712 0-224 100.29-224 224v96h-64v-96c0-148.238 112.004-270.3 256-286.22v-129.78h-128v-64h320v64h-128v129.78c143.994 15.92 256 137.982 256 286.22v96h-64z" />
<glyph unicode="&#xe91f;" d="M382.592 604.16c-19.712-7.552-37.888-18.432-54.016-32-18.304-15.744-33.664-34.688-45.44-55.68-4.48-7.68-21.376-38.4-23.424-88.576-1.152-28.416 7.424-57.728 11.392-69.888v-0.128c2.56-6.912 12.544-31.616 28.928-52.48 4.736-6.016 9.856-11.776 15.232-17.28-17.408 12.032-32.768 26.496-45.952 43.008-16.256 20.608-26.24 45.056-28.8 52.224v0.256c-4.096 12.16-12.672 41.6-11.392 70.016 2.048 50.048 18.944 80.896 23.424 88.576 11.776 20.992 27.136 39.936 45.44 55.68 16.128 13.568 34.432 24.448 54.016 32 12.288 5.12 25.088 8.832 38.144 11.264 19.712 3.456 39.808 3.712 59.648 0.896v-23.808c-23.168-0.384-45.952-5.12-67.2-14.080z" />
<glyph unicode="&#xe920;" d="M619.264 844.032h-76.8v-407.808c0-14.336 0-28.16-4.736-41.984-7.808-22.016-24.32-41.984-46.208-50.816-33.024-13.312-58.88-11.776-89.6 8.576-7.68 5.248-14.336 11.776-19.84 19.2 26.24-13.952 49.664-13.696 78.72-2.048 22.016 8.832 38.528 28.8 46.208 50.816 4.864 13.824 4.736 27.648 4.736 41.984v407.808h106.112c-0.128 0-1.28-10.112 1.408-25.728zM764.416 722.304v-22.656c-12.416 2.944-24.576 7.296-35.968 13.056-22.144 11.008-39.424 29.056-42.88 32.768 3.968-2.56 7.936-4.864 12.16-7.040 27.136-13.44 53.632-17.536 66.688-16.128z" />
<glyph unicode="&#xe921;" d="M621.824 70.656c0-2.944 0.384-5.76 1.28-8.576 0-0.256 0.128-0.384 0.128-0.64 4.224-13.568 16.768-22.784 30.976-22.784v-32.768c-16 0-27.392-0.512-44.8 9.728-19.712 11.776-30.848 33.152-30.848 55.424 0 22.912 12.416 45.952 33.664 57.088 15.36 8.064 27.008 8.064 42.112 8.064v-32.768c-17.92 0-32.384-14.464-32.384-32.384z" />
<glyph unicode="&#xe922;" d="M686.848 70.656c0-2.944-0.384-5.76-1.28-8.576 0-0.256-0.128-0.384-0.128-0.64-4.224-13.568-16.768-22.784-30.976-22.784v-32.768c15.872 0 27.392-0.512 44.672 9.728 19.84 11.776 30.976 33.152 30.976 55.424 0 22.912-12.416 45.952-33.664 57.088-15.36 8.064-27.008 8.064-42.112 8.064v-32.768c17.92 0 32.384-14.464 32.384-32.384v-0.384z" />
<glyph unicode="&#xe923;" d="M152.96 165.888h119.936l-11.136-33.024h-31.36v-126.336h-38.528v126.336h-38.912zM470.912 165.888v-33.024h38.912v-126.336h38.656v126.336h31.36l11.136 33.024zM299.008 128.384c10.368 0 18.688 8.32 18.688 18.688s-8.32 18.688-18.688 18.688-18.688-8.32-18.688-18.688 8.32-18.688 18.688-18.688zM280.32 6.656h37.888v108.544h-37.888zM454.4 129.28h-44.288l-38.144-38.144v74.752h-37.632l-0.128-159.104h38.016v41.472l11.776 10.752 36.864-52.224h40.576l-53.376 76.288zM817.664 82.944l46.336 46.336h-44.288l-38.144-38.144v74.752h-37.632l-0.256-159.232h38.016v41.472l11.904 10.752 36.864-52.224h40.576zM720.256 71.168c0-35.968-29.568-65.152-66.048-65.152s-66.048 29.184-66.048 65.152 29.568 65.152 66.048 65.152 66.048-29.184 66.048-65.152zM686.592 71.168c0 17.92-14.464 32.384-32.384 32.384s-32.384-14.464-32.384-32.384 14.464-32.384 32.384-32.384 32.384 14.464 32.384 32.384z" />
<glyph unicode="&#xe924;" d="M938.667 448c0-235.641-191.025-426.667-426.667-426.667s-426.667 191.025-426.667 426.667c0 235.641 191.025 426.667 426.667 426.667s426.667-191.025 426.667-426.667z" />
<glyph unicode="&#xe925;" d="M768 612.083c-18.822-8.363-39.081-13.995-60.326-16.538 21.69 13.005 38.347 33.585 46.178 58.108-20.273-12.047-42.782-20.768-66.69-25.495-19.166 20.41-46.487 33.175-76.676 33.175-58.005 0-105.039-47.034-105.039-105.039 0-8.224 0.939-16.245 2.731-23.942-87.307 4.369-164.7 46.197-216.51 109.749-9.045-15.514-14.217-33.551-14.217-52.802 0-36.435 18.517-68.587 46.726-87.426-17.237 0.546-33.414 5.274-47.597 13.141v-1.314c0-50.908 36.23-93.348 84.254-103.025-8.806-2.389-18.091-3.686-27.663-3.686-6.775 0-13.363 0.666-19.78 1.894 13.363-41.726 52.171-72.102 98.127-72.956-35.94-28.158-81.231-44.966-130.449-44.966-8.499 0-16.86 0.495-25.069 1.485 46.487-29.798 101.694-47.204 161.013-47.204 193.199 0 298.852 160.058 298.852 298.852 0 4.557-0.085 9.094-0.307 13.583 20.546 14.848 38.362 33.346 52.442 54.406z" />
<glyph unicode="&#xe926;" d="M938.667 448c0-235.641-191.025-426.667-426.667-426.667s-426.667 191.025-426.667 426.667c0 235.641 191.025 426.667 426.667 426.667s426.667-191.025 426.667-426.667z" />
<glyph unicode="&#xe927;" d="M400.527 655.277c0-26.562-20.224-48.058-51.851-48.058-30.396 0-50.622 21.495-49.995 48.058-0.627 27.853 19.597 48.723 50.601 48.723 31.021 0 50.639-20.87 51.245-48.723zM301.225 259.859v309.395h96.154v-309.374l-96.154-0.021z" />
<glyph unicode="&#xe928;" d="M474.438 470.515c0 38.59-1.271 71.49-2.543 98.697h83.52l4.439-42.385h1.899c12.655 19.618 44.282 49.329 95.529 49.329 63.255 0 110.707-41.76 110.707-132.828v-183.509h-96.156v171.46c0 39.881-13.905 67.070-48.702 67.070-26.581 0-42.387-18.347-48.704-36.049-2.543-6.338-3.795-15.179-3.795-24.058v-178.423h-96.156v210.697h-0.038z" />
<glyph unicode="&#xe929;" d="M960 448c0 247.424-200.576 448-448 448v0c-0.123 0-0.268 0-0.414 0-247.424 0-448-200.576-448-448 0-222.852 162.717-407.7 375.823-442.216l2.575-0.344v313.088h-113.664v129.472h113.728v98.688c0 112.256 66.88 174.336 169.216 174.336 49.024 0 100.288-8.768 100.288-8.768v-110.272h-56.512c-55.68 0-72.96-34.56-72.96-69.952v-84.032h124.224l-19.84-129.472h-104.448v-313.088c215.487 35.068 377.984 219.832 377.984 442.55 0 0.004 0 0.008 0 0.012v-0.001z" />
<glyph unicode="&#xe92a;" d="M686.4 318.528l19.84 129.472h-124.224v84.032c0 35.392 17.28 69.952 72.96 69.952h56.512v110.336s-51.264 8.768-100.288 8.768c-102.4 0-169.216-62.080-169.216-174.336v-98.752h-113.664v-129.472h113.728v-313.088c21.046-3.485 45.298-5.476 70.016-5.476s48.97 1.991 72.606 5.822l-2.59-0.346v313.088h104.32z" />
<glyph unicode="&#xe92b;" glyph-name="saudi-arabia" d="M66 448v-338h892v676h-892v-338zM442 634c0-1.2-1.2-3.8-2.4-6-2.2-3.4-2-4.4 0.2-5.8 4.2-2.8 1-8.6-4.2-7.8-6.2 0.8-7 9.2-1.6 16.2 4.4 5.4 8 7 8 3.4zM493.8 630.6c1.4-3.2 3-12.8 3.6-21.6s1.8-19 3-22.6c1.6-5.6 2.8-6.6 7.2-6 7.6 0.8 8.2 10.2 1.6 23.4-6 11.6-6.4 17.4-2 23.8 4.2 6.2 9.6 5.4 15.6-2l5.2-6.6v6.4c0 3.4 0.8 7 2 7.6 2.6 1.6 12-3.6 17.8-9.8l5-5.2 2 6.4c1.2 3.4 3.2 6.6 4.4 7s5.8-5 10.2-11.8c8.6-13.4 12.2-23.6 8.4-23.6-1.4 0-1.6-4.2-0.6-13.4 1-10 2.8-15.8 7-21.8 3.2-4.6 11.2-18.2 17.8-30 8.2-15 12-20.2 12-16.8 0 7-5.8 66.4-8 82-1.6 12-0.8 21.4 3 30.6 2.4 5.6 4.2 4 9.8-8.4 5.6-12.8 6.6-19.4 2.8-20.6-2-0.8-1.8-6.4 1.2-25.8 2-13.6 4-38.4 4.6-55.2 1.2-30.2 1.2-30.4-4.4-41.8-11.2-22.8-31.4-37-42.4-29.8-6.6 4.4-5.8 7.4 4 12.6 4.6 2.4 13.6 9.2 20 15 11.4 10.6 11.4 10.6 11 21.6-0.2 9.4-0.4 9.6-1 2.8-1.2-12.4-3.8-12.6-9.8-0.8-5.6 11.6-22.8 41.8-23.6 41.8-0.2 0 0-13.2 0.4-29.4 0.8-28.4 0.6-29.8-4-36.4-8.8-12.8-9.6-11-9.6 20.2 0 15.8-1 38.8-2.2 51.4l-2 22.8-17.4 24.2c-16.8 23.6-17.6 24.2-21 20.6-3.4-3.4-3.4-4.6-1.2-13.6 3.2-12.6 5.4-14.4 13.6-11.6 8 2.8 9.4 1.6 6.2-6-4.4-10.8-14-15.6-14-7 0 4.6-2.6 3.2-7-3.8-3.4-5.2-5.4-6.6-12.4-7-7.2-0.6-8.8 0.2-11.8 4.4-4.2 6.6-6.2 6.4-14.8-0.8-14.2-12.4-30-5-30 13.8 0 11.6-3 15.2-5 5.8-1.8-7.6-6.6-18-9.6-19.8-1-0.8-4.6-0.6-7.6 0.6-8.2 2.8-13.8 15.6-13.8 31.8 0 22 6.2 24 9.2 2.8 1.6-12 4-19 6.6-19 1 0 3.8 6 6.4 13.4 2.4 7.6 7.2 16.2 10.8 20.4 5.6 6 7 6.6 9.8 4.4 2.4-2 3.2-6.4 3.2-18.4 0-13.2 0.6-16.4 4-19.8 5.2-5.2 7.6-5 13.4 0.4 5.2 5 6 13.4 2.2 29.4-2 8.8-1.8 11.4 1 17.2 4 8.4 6 8.8 9.2 1.6zM477.6 629.4c0.4-1.6-0.4-6.8-1.6-11.4-1.6-6-3.2-8-5.6-7.6-2.6 0.6-3.2 2.4-2.6 8.6 0.2 4.4 1.4 9.6 2.6 11.6 2.2 4.2 6.4 3.6 7.2-1.2zM268.4 628.6c3.6-3.2 4.8-13.2 2.4-19.4-1.8-4.8-4.8-3.8-4.8 1.4 0 2.4-1.8 7-4 10.4-2.8 4.2-3.2 6.6-1.6 8.4 2.8 3.4 3.6 3.2 8-0.8zM685 623.8l9-8.4v6.2c0 6.4 5 12.2 7.8 9.2 1-1 5-7.8 9.2-15.2 6.2-11.6 6.8-13.8 4.2-14.8-5.8-2.2-4.2-18 3-29.2 3.4-5.4 6.8-9.4 7.2-8.8 0.4 0.4-1 11.6-3.2 24.8-5.2 30.4-5.4 36.8-0.2 41.4 5 4.6 6.6 3.2 12.8-12 2.8-6.6 5-10.6 5.2-8.8 0 5.4 5.6 6.2 8.8 1.2 4.4-7 5.4-15 3.2-23.4-2.8-10.4-6-10.2-6 0.6 0 4.6-1.4 10.2-3 12.2-2.4 3.2-3 3.4-3 0.8 0-1.8-1-3.6-2.4-4-1.8-0.6-1.4-7.4 2-27.8 2.4-14.8 4.4-28.6 4.4-30.4 0-2 5-11 11.2-20l11.2-16.4-1.2 22c-0.8 12-3.2 35-5.2 51-4.6 34-5 49.8-1.4 54.8 2.4 3.2 3.4 2.4 11-9.2 9-13.8 10.2-17.6 5.4-17.6-3.6 0-3.6 1.2 0.2-21 4.2-24.6 6-99 2.8-111-4.4-16.4-20.8-28-39.8-28-5.6 0-6.6 0.6-5.6 3.8 0.8 3.6 0.6 3.6-6 1-3.6-1.6-7.6-2.4-8.6-1.8-3 1.8-2.4 6.4 1 7.8 3.4 1.2 4.2 7.2 1 7.2-1 0-2 1.8-2 4.2 0 3.4 1 4 6.6 3.4 5.2-0.4 6.4-1.4 6-5-0.4-3 0.6-4.6 2.4-4.6 1.6 0 3-1.4 3-3.2 0-4.6 18.8 6.2 25.2 14.6 4.4 5.8 4.6 7 2 9.6-1.6 1.6-5.8 8.2-9.6 14.4l-6.6 11.6-1-9.4c-1.2-9-6.8-19.6-11.4-21-1.4-0.6-2.4 9-3 27.4-1 26-1.4 28.6-6.4 36-2.8 4.4-5.6 8-6 8s-0.2-10.2 0.4-22.8c1.4-33-0.4-44.4-8.6-52.6-9-9-15.8-8.8-27 0.8l-8.6 7.4-3.4-4.2c-1.8-2.4-4-7.8-4.8-12.2-1.4-9.2-8-18.4-13.2-18.4s-16 9.6-19.2 17.4c-3.4 8-3.6 22.6-0.4 29.6 3.2 7.2 4.6 6.2 4.6-3.6 0.2-15 5-25.4 11.8-25.4 1.4 0 5.8 7 9.8 15.6 11.6 25 17.4 27.6 28 12.2 6-8.8 9.2-9.2 12.8-1.6 3.4 7.2 3.8 17.4 1.8 51.8l-1.6 31-12.6 16c-6.8 8.8-13.4 18-14.6 20.4-3.8 6.8-3 24.6 1 24.6 0.4 0 4.8-3.8 9.6-8.2zM314 627.8c0-1.6 0.8-1.6 2.8 0 2.2 2 3.4 1.6 5-1.2 2-3.4 2-3.4 2.2 0 0 2 1.2 3.4 2.6 3 3.4-1.2 4.2-9.2 1.4-12.8-3-3.4-14.2-3.8-17.6-0.4-2.6 2.6-3.2 10-1 12.2 2 2.2 4.6 1.6 4.6-0.8zM413 626.8c2.2-2.2 2.8-4.8 2-7.6-0.8-2.4-1.4-6.2-1.4-8.6 0-2.8-4.8-9.6-12.4-17.6-12-12.6-12.4-13-22.2-13l-10 0.2 7.2 6.4c3.8 3.4 11.4 10.2 17 14.6 9.4 8 9.6 8.4 6.4 12.2-4.4 4.8-4.6 9.4-0.4 13.4 4 4.2 9.6 4 13.8 0zM643.6 615.2c4.6-8 8.4-15.2 8.4-15.8 0-0.4-1.8-1.4-4.2-2-3-0.8-3.8-2.2-3-4.8 2.4-7.8 9.4-62.8 10.6-81.8 1.2-21.6-0.8-31.8-7.4-37.8-4-3.6-4-3.4-4 10.8 0 20-3.2 47.8-10.2 85.2-3.2 17.6-5.8 35.6-5.8 40.2 0 8.6 3.4 20.8 5.8 20.8 0.8 0 5.2-6.6 9.8-14.8zM297.6 624.6c1-2 2.6-7.2 3.4-11.6 1.4-7.4 1.6-7.6 3.2-3.4 4.2 11.2 15.8-3 15.8-19.4 0-6.4 1.2-10.2 4.4-13.6 10-10.6 13-1.2 4.6 14.6-5.4 10.2-6.4 18.6-2.6 22.4 4 4 9 2.8 13.6-3l4.4-5.6-1.2 8c-1.2 6.6-0.6 8.8 2.6 11.8 6.8 6.2 10.6 3.4 16.6-11.8 6.6-17 6.6-17 1.6-17-4.8 0-4.8 0.4-1-25 1.6-11 3-20.6 3-21.4s2-1.6 4.6-2c2.8-0.4 4.6-2.2 5-5 1-6.4 5.4-5.8 10.4 1.4 5 7 9 7.6 12.2 1.6 2.2-4 2.4-4.2 4.2-0.4 2.4 4.4 7.4 8.8 10.2 8.8 1.6 0 0.4-16.4-1.8-24.2-1.4-5-11.6-8.6-16.4-6-2.8 1.6-5.8 1-12-2-6.2-3.2-9-3.6-12-2-3.8 2-3.8 1.4-3.8-13.4 0.2-24.6-10.2-42.2-32.2-53.2-25-12.6-48.8-10.4-58.4 5.4-6.8 11-4.4 43.6 2.8 40.8 1.8-0.8 3.4 2.2 5 9.8 3.8 16.6 10.2 14 10.2-4.4 0-17.6 15-22 32.8-9.4 7.4 5.2 16.8 17.6 14.8 19.8-0.6 0.4-4-0.6-7.6-2.6-6-2.8-7.2-3-11.8-0.4-4.4 2.4-5.2 4.6-5.8 13.2-0.6 9 0.2 11.2 5.2 16.8 7.2 8 14.6 8.4 22.6 0.6 10-9.6 11-5 6 25.8-2.2 14.8-4.2 27.4-4.2 28.2 0 0.6-1.2 1.2-2.8 1.2-2.4 0-2.4-1.4 0-9.4 5.8-19.6 3.2-28.2-10.8-34-6-2.6-7.2-2.4-13.6 1.6-3.8 2.4-7.6 3.6-8.4 2.8s-1.4-12.8-1.4-27c0-22.4-0.4-26-3.8-29.8-2.2-2.4-4.4-4.2-5.2-4.2s-2.2 7.6-3 17c-0.8 9.4-1.6 17-2 17-0.2 0-9.8-4.4-21.2-10-11.4-5.4-21.4-10-22.2-10-6.4 0 10.8 19.8 21.2 24.8 9 4.2 18.4 4.2 21.2-0.2 1.8-3 2-2.6 1.6 2.4-0.6 5-1.8 6.4-7.6 8.2-9.4 3-12 8.8-12 26.8 0 10.4-0.6 14-2 12-1-1.6-2-7.4-2-13 0-13-3.6-19.8-10.4-20.6-4-0.4-6.2 0.8-8.6 4.4-4 6-6.8 24.8-5.4 36.6 1 9.2 3.8 11.4 5.4 4.2 4.4-20.2 6.2-26.6 7.8-26.6 1 0 3.4 6 5.2 13.2 3.8 15.6 8.6 23.8 14 23.8 5.8 0 8.6-8.8 7.2-22.2-0.8-8.4-0.4-12.2 2-15 2.8-3.4 2.8-2.6 1.8 10.2-3.8 50-3.8 47 0.6 47 2.4 0 5-1.6 6-3.4zM594.8 621c3.8-7.8 2.8-19.2-2-23.2-2.2-1.8-2.8-1.2-2.8 4.2 0 3.6-1.8 9.6-4.2 13.4-4.6 7.4-3.8 12.6 2 12.6 2.4 0 5-2.6 7-7zM403 579.8c-1.8-5.6 0.4-8.2 5.2-5.8 5.2 3 5.2-2.2-0.2-7-10.2-9.2-20 5-10.6 15.4 3.8 4.2 7.2 2.6 5.6-2.6zM588 583.6c0-1.6 0.6-1.8 1.6-0.6 0.8 1.2 4.4 2.2 8 2.4 6.2 0.4 6.6 0 6-5-1.4-12.8-21.6-13.4-21.6-0.4 0 4 1 6 3 6 1.6 0 3-1.2 3-2.4zM685.6 581.4c1.2-1.2 2.6-4.8 3.4-8 1.2-4 0.8-5.4-1.6-5.4-3.6 0-5.4-4.2-5.4-13.2 0-9.2-4-8.8-14 1.2-9 9-10.6 16.8-3.8 19 2.4 0.8 5.2 0.4 6.4-0.8 3.2-3.2 5.4-2.8 4.2 0.8-1.4 3.4 2.4 9 6.2 9 1.4 0 3.4-1.2 4.6-2.6zM454.8 560.2c4.6-5.2 10.6-21.2 12.2-33.2 2-15.4 2.6-16.2 7.2-10.2 5 6.2 15.8 12.2 28.2 15.2 8.8 2.2 9.2 2.6 10.2 11.4 1.2 11.6 8.4 19.2 17.4 19 13-0.4 21.6-15.8 15.4-27.6-4.6-8.8-10-12.8-22.8-16.8l-11.6-3.6 27.6-0.2c15-0.2 27.4-0.4 27.4-0.8 0-0.2-1.8-4-4-8.4s-4-9-4-10.4c0-3-11.6-6.4-32.2-9.4-23.2-3.4-27.8-9.4-13.8-18.2 7.8-4.8 9.6-9.2 6.4-14.6-1.2-1.8-4.2-2-12.2-0.4-15.8 3-26.4 8.4-35 18l-7.6 8.6-10.8-12.2c-13-14.6-29.2-23.6-38.8-21.4-7.4 1.6-18 10.2-18 14.4 0 2.2-1 2.6-3.4 1.6-13-5.6-41.6-14.6-43.2-13.6-3 1.8 7 10.4 27.6 23.4 16.6 10.4 19.8 13.4 22 19.8 1.4 4 3.8 9 5.2 10.8 2.6 3 3 2.6 3.8-3l1-6.2 10.6 9c9 8 10.4 10.2 10.4 16.4 0 5-2 10-6 15.2-6.8 9-7.6 14.8-2.4 21.2 2.8 3.4 4.8 4.2 8.2 3 7.4-2.2 16.6-21 10.2-21-1.2 0-1.2-2 0.2-5.4 1.2-3 2-9.8 2.2-15.2 0-7.8-1.4-11.8-7-20.4-4-5.8-11.2-13.6-16.4-17.2-10.8-7.8-11.2-12.6-0.8-13.4 5.8-0.4 9 0.8 17.4 7.4 13.2 10.4 20.4 22.8 20.4 34.4 0 4.8-2.8 16.4-6 25.8-6.4 18.4-7.4 25.8-3.6 29.6 3.2 3.2 4.4 3 8.4-1.4zM487.2 553.8c0.8-1.6 1.8-1.4 3 0.4 1.6 2.4 2.2 2.2 3.8-0.2 1.2-2 2-2.2 2-0.4 0 1.2 1.4 2.4 3 2.4s3-0.8 3-1.8c0-1 0.6-3.2 1.2-4.8 2.6-7-13-12.8-18.8-7-2.8 2.8-3.2 13.6-0.6 13.6 1.2 0 2.6-1 3.4-2.2zM698 542.2c0-4.8-2-7.2-13.4-15-15.4-10.4-18.6-11.2-18.6-4.6 0 3.4 3.6 7.2 14.6 15 7.8 5.6 15 10.2 16 10.4 0.8 0 1.4-2.6 1.4-5.8zM697.8 521.8c3.4-9.6 2.6-18.8-1.8-24l-3.8-4.8-0.2 7c0 3.8-1.2 10.6-2.8 15-3.2 9-2.4 13 2.8 13 2.2 0 4.4-2.4 5.8-6.2zM394.8 505c1.4-5.4-1.6-15-4.8-15-1 0-2 3-2 6.8 0 3.6-1.4 7.8-3 9.2-3.6 3-4 7.4-0.4 8.6 3.4 1.2 8.8-3.8 10.2-9.6zM257.8 464.6c3.4 4.4 6.2 2.6 6.2-4.2 0-6.4-5-14.4-9.2-14.4-1.6 0-4.8 2-7 4.2-3.8 3.8-4.2 6-3.4 16.6 0.6 6.8 2.8 15.4 4.8 19.2l3.8 7 1-15.8c0.8-13.8 1.4-15.4 3.8-12.6zM544 467.8c0-5.2 0.4-5.8 3.8-3.8 2.2 1 6.4 2 9.2 2 9 0 5-6-6.4-10-8.4-3-10.8-3.2-12.6-1-1.2 1.4-1.8 3.8-1.6 5.2 0.4 1.8-0.8 2.6-2.8 2.2-5.4-0.8-4.4 4.8 1.6 9.4 6.4 5 8.8 4 8.8-4zM651.2 309.2c1.6-1.6 2.8-4.8 2.8-7 0-4.6 2.8-4.8 38.6-5.2 15.2 0 18.4-2.2 20.6-14 2-11 0.2-17.6-5.6-21-4.8-2.6-6.2-2.6-9.8-0.4-3.2 2-10.8 2.6-28.2 2.2-26-0.8-27.6-0.2-27.6 10.6v5.4l-147.4 0.6c-162 0.8-156.8 0.4-170.2 13-3.8 3.6-6.6 7-6.2 7.4 0.4 0.2 46.2-0.2 101.8-1s128.2-1.6 161.6-1.6c60.2-0.2 60.6-0.2 59.4 3.8-1.4 4.2 1.8 10 5.4 10 1 0 3.2-1.2 4.8-2.8zM554 604.2c0-1.2 0.8-2.6 2-3.2s1.4 0.2 0.8 1.8c-1.4 3.6-2.8 4.2-2.8 1.4zM692 608.2c0-1.2 1-2.6 2-3.2 1.2-0.6 2 0.2 2 1.8 0 1.8-0.8 3.2-2 3.2-1 0-2-0.8-2-1.8zM766.6 491c0-5.4 0.4-7.6 0.8-4.4 0.4 3 0.4 7.4 0 10-0.4 2.4-0.8 0-0.8-5.6zM404 618c0-1 1-2 2-2 1.2 0 2 1 2 2 0 1.2-0.8 2-2 2-1 0-2-0.8-2-2zM303.2 589c1.4-11 2-13 5-13 1.2 0 1.2 1.4-0.2 3.8-1 2.2-2.8 7.4-4 11.6-1.8 7.2-1.8 7-0.8-2.4zM329 532c-1.4-2.4 0.4-6 3.2-6 2.4 0 2.4 5.4 0 7-1 0.6-2.4 0.2-3.2-1zM349.6 506.4c-2-6.2-5.2-14.2-7.4-17.6-14-22.8-47.8-25.2-57.4-4.2l-3 6.4 1.2-8c1.8-11.6 5.8-16.6 15.4-19 19.8-5.4 42 6.6 51.2 28 4.6 10.2 7.6 26 5 26-0.8 0-3.2-5.2-5-11.6zM525 542c0.6-1 2.6-2 4.2-2s2.4 1 1.8 2c-0.6 1.2-2.6 2-4.2 2s-2.4-0.8-1.8-2zM474 499c-3.2-3.8 2-15.4 9.6-20.8 3.4-2.2 6.4-4.2 7-4.2s1.4 3.4 1.8 7.4c0.4 6 1.8 8.2 6.2 10.2 10 4.8 7.8 6.2-15 9.2-4.8 0.6-8.2 0-9.6-1.8zM653 278.2c-0.6-1-0.4-2.4 0.4-2.8 2.6-1.6 38.6-0.8 38.6 0.6 0 3.2-37 5.2-39 2.2z" />
<glyph unicode="&#xe92c;" glyph-name="united-states-of-america" d="M0 605v-183h512v26h512v86h-512v84h512v86h-512v84h-512v-183zM92.2 715.6l2.2-9.6h12.8c7 0 12.8-0.8 12.8-1.6 0-1-4.4-4.8-9.8-8.4l-9.8-6.8 3.8-10.8c2.2-6 3.8-11.8 3.8-12.8 0-1.2-4.4 1.2-9.8 5.2s-10.4 7.2-11.2 7.2c-0.8 0-5.8-3.2-11.2-7.2-10.8-7.8-11.2-7.4-6.8 5.2 1.6 4.6 3 9.8 3 11.2 0 1.6-4.8 6.2-10.4 10.4l-10.6 7.4 27.6 2 4 11.8c4.2 13 5.8 12.4 9.6-3.2zM204.6 717l2.8-10 27.6-2-10.4-7.6c-5.8-4.4-10.6-8.4-10.6-9.2s1.8-6.6 3.8-13c4.4-12.6 4.2-12.6-9.6-2.4-3.8 2.8-7.8 5.2-8.6 5.2s-6-3.2-11.6-7.2c-5.4-4-10-6.8-10-6.4 0 0.6 1.8 6.2 4 12.8l4 11.8-4.4 3.4c-2.6 2-7 5.2-10 7-3.2 2-5.6 4.2-5.6 5s5.8 1.6 12.6 1.6h12.8l3.6 12c2 6.6 4.4 11.4 5.2 10.6s2.8-6 4.4-11.6zM333.4 706c7 0 12.6-0.8 12.6-1.6s-2.4-3-5.4-5c-3.2-1.8-7.6-5-10.2-7l-4.4-3.4 4-11.8c2.2-6.6 4-12.2 4-12.8 0-0.4-4.6 2.4-10 6.4-5.6 4-10.8 7.2-11.6 7.2s-4.8-2.4-8.6-5.2c-13.8-10.2-14-10.2-9.6 2.4 2 6.4 3.8 12.2 3.8 13s-4.8 5-10.4 9.2l-10.6 7.6 27.6 2 2.4 8.6c4.8 16.2 5.2 16.2 9.6 3l4.2-12.6h12.6zM429.6 717.8l3.8-10.8 27.6-2-10.6-7.4c-5.6-4.2-10.4-8.8-10.4-10.4 0-1.4 1.4-6.6 3-11.2 4.4-12.4 4-12.6-6.8-5-5.2 3.8-10.4 7-11.2 7s-5.8-3.2-11.2-7.2c-5.4-4-9.8-6.4-9.8-5.2 0 1 1.6 6.6 3.8 12.6l3.6 11-9.6 6.8c-5.4 3.8-9.8 7.6-9.8 8.6 0 0.8 5.8 1.4 12.6 1.4h12.8l3.4 12.2c1.8 6.8 3.8 11.8 4.2 11.4 0.6-0.6 2.6-5.8 4.6-11.8zM91.6 625.8l3.8-10.8 12.2-0.6c6.8-0.4 12.4-1.2 12.4-2s-4.6-4.4-9.8-8l-9.8-6.6 3.8-11.2c2-6.2 3.4-11.6 2.8-12.2-0.4-0.4-5.2 2.2-10.4 6.2l-9.6 7-9.6-7c-5.2-4-10-6.8-10.4-6.2-0.4 0.4 0.4 5.2 2 10.6 1.6 5.2 3 10.6 3 11.8s-4.6 5.4-10.4 9.2l-10.2 7 27.2 2 4 11.6c2 6.4 4.2 11.2 4.6 10.8s2.4-5.6 4.4-11.6zM205 624.6l3.4-10.6 13.2-0.2h13.4l-5.8-4.4c-3.2-2.4-8-6.2-10.8-8.6l-5-4 3.6-10.6c1.8-5.8 3-10.8 2.6-11.4-0.6-0.4-5.2 2.4-10.6 6l-9.6 7-10.2-7.8c-5.6-4.2-10.4-7.6-10.6-7.2-0.2 0.2 1.2 5.8 3.4 12.2l3.8 12-5.2 4c-2.8 2.2-7.6 6-10.4 8.4l-5.2 4.4 13.2 0.2h13.2l3.6 12c2 6.6 4.4 11.4 5 10.6 0.8-0.8 3-6.4 5-12zM333.8 614l13.2-0.2-5.2-4.4c-2.8-2.4-7.6-6.2-10.6-8.4l-5.4-4 4-11.8c2.4-6.6 4-12.2 3.6-12.4-0.2-0.4-5.2 3-10.8 7.2l-10.2 7.8-9.4-7c-5-4-9.8-6.8-10.4-6.2s0.6 5.8 2.4 11.6l3.6 10.6-5 4c-2.8 2.4-7.6 6.2-10.8 8.6l-5.8 4.4h13.4l13.2 0.2 3.6 10.6c5 15.4 5.2 15.4 9.6 1.8l4-12.4h13zM429.6 625.8l3.8-10.8 27.4-2-10.4-7c-5.6-3.8-10.4-8-10.4-9.2s1.4-6.6 3-11.8c1.6-5.4 2.4-10.2 2-10.6-0.4-0.6-5.2 2.2-10.4 6.2l-9.6 7-9.6-7c-5.2-4-10-6.6-10.4-6.2-0.6 0.6 0.8 6 2.8 12.2l3.8 11.2-9.8 6.6c-5.2 3.6-9.8 7.2-9.8 8s5.6 1.6 12.4 2l12.2 0.6 4 11.6c2 6.4 4.2 11.2 4.6 10.8s2.4-5.6 4.4-11.6zM91.6 533.8l3.8-10.8 26.6-2-10-6.8c-10.8-7.4-11.6-9.4-7-22.2 1.6-4.8 2.6-9 2.2-9.6-0.6-0.4-4.4 1.8-8.6 5s-8.6 6.4-9.8 7.2c-1.2 0.6-6.4-2-11.8-5.6-5.4-3.8-10-6.6-10.6-6.2-0.4 0.6 0.6 5.2 2.4 10.4s3.2 10.6 3.2 11.8c0 1.4-4.6 5.4-10 9.2l-10 6.8 26.6 2 4 11.6c2 6.4 4.2 11.2 4.6 10.8s2.4-5.6 4.4-11.6zM204.8 532.6l3.4-10.4 26.2-1.2-9.6-6.8c-5.4-3.8-10-7-10.4-7.4-0.4-0.2 0.8-5.4 2.6-11.8 1.8-6.2 3-11.6 2.4-12.2-0.4-0.4-5 2.4-10.2 6.4l-9.4 7-10-7.4c-5.4-4-10.4-6.8-10.8-6.4-0.6 0.6 0.8 6 3 12.4l3.8 11.4-20.8 14.8 26.4 1.2 3.6 12c2 6.6 4.4 11.2 5 10.4 0.8-0.8 3-6.2 4.8-12zM333.8 521.6l13.2-0.6-10.4-7.4-10.2-7.4 3.6-11.6c2-6.4 3.2-12 2.8-12.4-0.2-0.4-5.2 2.6-10.6 6.6l-10 7.4-9.4-7c-5.2-4-9.8-6.8-10.2-6.4-0.6 0.6 0.6 6 2.4 12.2 3.6 12.8 4.2 11.8-11 21.6l-7 4.4 26.8 1.2 3.4 10.4c5 15.4 5.2 15.4 9.6 2l4-12.4 13-0.6zM429.6 533.8l3.8-10.8 26.6-2-10-6.8c-5.4-3.8-10-7.8-10-9.2 0-1.2 1.4-6.6 3.2-11.8s2.8-9.8 2.4-10.4c-0.6-0.4-5.2 2.4-10.6 6.2-5.4 3.6-10.6 6.2-11.8 5.6-1.2-0.8-5.6-4-9.8-7.2s-8-5.6-8.4-5c-0.4 0.4 0.4 5.2 2 10.6 1.6 5.2 3 10.8 3 12 0 1.4-4.6 5.6-10.2 9.6l-10.4 7.2 27.2 1.2 4 11.6c2 6.4 4.2 11.2 4.6 10.8s2.4-5.6 4.4-11.6zM0 320v-42h1024v84h-1024v-42zM0 149v-43h1024v86h-1024v-43z" />
<glyph unicode="&#xe92d;" glyph-name="turkey" d="M0 448v-342h1024v684h-1024v-342zM371 595.8c28-3.8 57.4-16.8 77-33.8l7-6-10.6 4c-16.4 6.2-27.8 8.2-46.4 8.2-21.6 0-32.8-2.6-54-12.8-31.2-15-54.4-44.4-63.2-79.4-4.4-17.8-3-50.2 3.2-67.8 5.8-16.6 21.6-39.8 34.6-51.2 11.6-10.2 37.2-23.4 52.4-27 21.6-5 58.4-1.6 75.2 7.2 10 5 8.6 2-2.6-6.6-15.2-11.6-27-18-43.4-23.6-71.8-24.4-148.4 7.6-183 76.4-19 37.8-19 91.6 0.2 129.2 21.2 42.4 61.2 73.6 103.6 81.2 26 4.6 30 4.8 50 2zM514.8 498.6l15-20.4 22.4 7.2c12.4 3.8 24.8 7.8 27.4 8.8 2.8 1 5.2 1.6 5.6 1.4 0.2-0.4-7.2-11.2-16.6-24.2l-17-23.6 17-23.4c9.4-12.8 16.8-23.6 16.6-23.8s-12.8 3.4-28 8.2l-27.4 8.8-15-20.2c-8.2-11.2-16.2-22.2-17.8-24.4-2.4-3.6-2.8-0.4-2.8 26.4l-0.2 30.4-27 8.4c-14.8 4.6-27 9-27 9.8s12.2 5.2 27 9.8l27 8.4 0.2 30.4c0 26.8 0.4 30 2.8 26.4 1.6-2.2 9.6-13.2 17.8-24.4z" />
<glyph unicode="&#xe92e;" glyph-name="china" d="M0 448v-336h1024v672h-1024v-336zM383.6 707.8l7.4-2.6-7.4-2.8c-6.6-2.6-7.4-3.6-8-11.2l-0.6-8.2-4 6.6c-2.4 3.8-5 6-6.6 5.4s-5-1.6-8-2.4l-5.2-1.2 4.8 6.4 4.6 6.6-4.6 6c-5.4 7.2-4.6 8.2 3.8 5.4 3.6-1.2 6.6-2 7-1.6 0.2 0.4 2.2 3.6 4.4 6.8l3.8 6 0.6-8.4c0.6-7.6 1.2-8.6 8-10.8zM183 683.2l11.8-39.2 41.8-0.4 41.8-0.6-34.2-24c-25-17.4-34-24.8-33-27 4.2-10.4 26.4-78 25.8-78s-15.4 11.2-33.2 25l-32.2 25-17.2-13.4c-9.6-7.4-24-18.8-32.2-25-8.2-6.4-15.2-11.4-15.4-11-0.4 0.4 5 18.2 12.2 39.4 7.2 21.4 13 39.6 13 40.4 0 0.6-15 12-33.4 25l-33.4 23.6 41 0.6 41.2 0.4 10.6 40c6 21.8 11.4 39.4 12 39s6.4-18.4 13-39.8zM419.2 619.8c6.6 5.2 8 4.2 5.2-3.6-2-5.6-1.6-6.6 4.2-11.2l6.4-5h-7.4c-7 0-7.6-0.4-9.8-8.4l-2.4-8.6-2.4 7c-2 6.2-3.2 7.2-10.8 8l-8.6 1 6.4 4.6c4 3 5.8 5.8 5.2 7.8-0.6 1.6-1.8 5.2-2.4 8l-1.4 5.2 6.2-4.6 6-4.6 5.6 4.4zM411.6 510h7.4l-6-4.8c-5.4-4.4-5.8-5.2-3.6-12 2-6.6 0.6-10-2.4-5.2-3.2 5.2-8.6 5.8-13.8 1.8-6.8-5.2-7.8-4.4-4.6 4 2.2 6.2 2 6.8-3.6 11.4l-6 4.8h7.4c7 0 7.6 0.4 9.8 8.6l2.4 8.4 2.8-8.4c2.8-8 3.4-8.6 10.2-8.6zM333.6 421.2c3.4-1 6.4-2.4 6.4-3.2s-3-2.2-6.4-3.4c-6.4-1.8-6.6-2.2-6-10.6l0.8-9-6 7c-5.4 6.4-6.2 6.8-11.2 4.4-8.6-3.8-9.8-2.8-4.4 4l5 6.4-5.2 7-5.2 6.8 5-1.2c3-0.8 6.6-1.8 8-2.4 1.8-0.8 4.2 1.4 6.8 6l3.8 7.2 1-8.4c0.8-7.8 1.8-8.8 7.6-10.6z" />
<glyph unicode="&#xe92f;" glyph-name="edit, pencil-square-o" horiz-adv-x="1025" d="M507.429 274.286l66.286 66.286-86.857 86.857-66.286-66.286v-32h54.857v-54.857h32zM758.857 685.714c-5.143 5.143-13.714 4.571-18.857-0.571l-200-200c-5.143-5.143-5.714-13.714-0.571-18.857s13.714-4.571 18.857 0.571l200 200c5.143 5.143 5.714 13.714 0.571 18.857zM804.571 346.286v-108.571c0-90.857-73.714-164.571-164.571-164.571h-475.429c-90.857 0-164.571 73.714-164.571 164.571v475.429c0 90.857 73.714 164.571 164.571 164.571h475.429c22.857 0 45.714-4.571 66.857-14.286 5.143-2.286 9.143-7.429 10.286-13.143 1.143-6.286-0.571-12-5.143-16.571l-28-28c-5.143-5.143-12-6.857-18.286-4.571-8.571 2.286-17.143 3.429-25.714 3.429h-475.429c-50.286 0-91.429-41.143-91.429-91.429v-475.429c0-50.286 41.143-91.429 91.429-91.429h475.429c50.286 0 91.429 41.143 91.429 91.429v72c0 4.571 1.714 9.143 5.143 12.571l36.571 36.571c5.714 5.714 13.143 6.857 20 4s11.429-9.143 11.429-16.571zM749.714 768l164.571-164.571-384-384h-164.571v164.571zM1003.429 692.571l-52.571-52.571-164.571 164.571 52.571 52.571c21.143 21.143 56.571 21.143 77.714 0l86.857-86.857c21.143-21.143 21.143-56.571 0-77.714z" />
<glyph unicode="&#xe930;" glyph-name="comments-o" d="M402.286 731.428c-178.286 0-329.143-100.571-329.143-219.429 0-62.857 42.286-123.429 115.429-165.714l55.429-32-20-48c12 6.857 24 14.286 35.429 22.286l25.143 17.714 30.286-5.714c28.571-5.143 57.714-8 87.429-8 178.286 0 329.143 100.571 329.143 219.429s-150.857 219.429-329.143 219.429zM402.286 804.571c222.286 0 402.286-130.857 402.286-292.571s-180-292.571-402.286-292.571c-34.857 0-68.571 3.429-100.571 9.143-47.429-33.714-101.143-58.286-158.857-73.143-15.429-4-32-6.857-49.143-9.143h-1.714c-8.571 0-16.571 6.857-18.286 16.571v0c-2.286 10.857 5.143 17.714 11.429 25.143 22.286 25.143 47.429 47.429 66.857 94.857-92.571 53.714-152 136.571-152 229.143 0 161.714 180 292.571 402.286 292.571zM872 136.571c19.429-47.429 44.571-69.714 66.857-94.857 6.286-7.429 13.714-14.286 11.429-25.143v0c-2.286-10.286-10.857-17.714-20-16.571-17.143 2.286-33.714 5.143-49.143 9.143-57.714 14.857-111.429 39.429-158.857 73.143-32-5.714-65.714-9.143-100.571-9.143-103.429 0-198.286 28.571-269.714 75.429 16.571-1.143 33.714-2.286 50.286-2.286 122.857 0 238.857 35.429 327.429 99.429 95.429 69.714 148 164 148 266.286 0 29.714-4.571 58.857-13.143 86.857 96.571-53.143 159.429-137.714 159.429-233.143 0-93.143-59.429-175.429-152-229.143z" />
<glyph unicode="&#xe931;" glyph-name="cogs, gears" horiz-adv-x="1097" d="M512 438.857c0 80.571-65.714 146.286-146.286 146.286s-146.286-65.714-146.286-146.286 65.714-146.286 146.286-146.286 146.286 65.714 146.286 146.286zM950.857 146.286c0 40-33.143 73.143-73.143 73.143s-73.143-33.143-73.143-73.143c0-40.571 33.143-73.143 73.143-73.143 40.571 0 73.143 33.143 73.143 73.143zM950.857 731.428c0 40-33.143 73.143-73.143 73.143s-73.143-33.143-73.143-73.143c0-40.571 33.143-73.143 73.143-73.143 40.571 0 73.143 33.143 73.143 73.143zM731.429 490.857v-105.714c0-7.429-5.714-16-13.143-17.143l-88.571-13.714c-4.571-14.857-10.857-29.143-18.286-43.429 16-22.857 33.143-44 51.429-65.714 2.286-3.429 4-6.857 4-11.429 0-4-1.143-8-4-10.857-11.429-15.429-75.429-85.143-92-85.143-4.571 0-8.571 1.714-12 4l-65.714 51.429c-14.286-7.429-28.571-13.143-44-17.714-2.857-29.143-5.714-60.571-13.143-88.571-2.286-8-9.143-13.714-17.143-13.714h-106.286c-8 0-16 6.286-17.143 14.286l-13.143 87.429c-14.857 4.571-29.143 10.857-42.857 17.714l-67.429-50.857c-2.857-2.857-7.429-4-11.429-4-4.571 0-8.571 1.714-12 4.571-14.857 13.714-82.286 74.857-82.286 91.429 0 4 1.714 7.429 4 10.857 16.571 21.714 33.714 42.857 50.286 65.143-8 15.429-14.857 30.857-20 46.857l-86.857 13.714c-8 1.143-13.714 8.571-13.714 16.571v105.714c0 7.429 5.714 16 13.143 17.143l88.571 13.714c4.571 14.857 10.857 29.143 18.286 43.429-16 22.857-33.143 44-51.429 65.714-2.286 3.429-4 7.429-4 11.429s1.143 8 4 11.429c11.429 15.429 75.429 84.571 92 84.571 4.571 0 8.571-1.714 12-4l65.714-51.429c14.286 7.429 28.571 13.143 44 18.286 2.857 28.571 5.714 60 13.143 88 2.286 8 9.143 13.714 17.143 13.714h106.286c8 0 16-6.286 17.143-14.286l13.143-87.429c14.857-4.571 29.143-10.857 42.857-17.714l67.429 50.857c3.429 2.857 7.429 4 11.429 4 4.571 0 8.571-1.714 12-4.571 14.857-13.714 82.286-75.429 82.286-91.429 0-4-1.714-7.429-4-10.857-16.571-22.286-33.714-42.857-49.714-65.143 7.429-15.429 14.286-30.857 19.429-46.857l86.857-13.143c8-1.714 13.714-9.143 13.714-17.143zM1097.143 186.286v-80c0-8.571-73.714-16.571-85.143-17.714-4.571-10.857-10.286-20.571-17.143-29.714 5.143-11.429 29.143-68.571 29.143-78.857 0-1.714-0.571-2.857-2.286-4-6.857-4-68-40.571-70.857-40.571-7.429 0-50.286 57.143-56 65.714-5.714-0.571-11.429-1.143-17.143-1.143s-11.429 0.571-17.143 1.143c-5.714-8.571-48.571-65.714-56-65.714-2.857 0-64 36.571-70.857 40.571-1.714 1.143-2.286 2.857-2.286 4 0 9.714 24 67.429 29.143 78.857-6.857 9.143-12.571 18.857-17.143 29.714-11.429 1.143-85.143 9.143-85.143 17.714v80c0 8.571 73.714 16.571 85.143 17.714 4.571 10.286 10.286 20.571 17.143 29.714-5.143 11.429-29.143 69.143-29.143 78.857 0 1.143 0.571 2.857 2.286 4 6.857 3.429 68 40 70.857 40 7.429 0 50.286-56.571 56-65.143 5.714 0.571 11.429 1.143 17.143 1.143s11.429-0.571 17.143-1.143c16 22.286 33.143 44.571 52.571 64l3.429 1.143c2.857 0 64-36 70.857-40 1.714-1.143 2.286-2.857 2.286-4 0-10.286-24-67.429-29.143-78.857 6.857-9.143 12.571-19.429 17.143-29.714 11.429-1.143 85.143-9.143 85.143-17.714zM1097.143 771.428v-80c0-8.571-73.714-16.571-85.143-17.714-4.571-10.857-10.286-20.571-17.143-29.714 5.143-11.429 29.143-68.571 29.143-78.857 0-1.714-0.571-2.857-2.286-4-6.857-4-68-40.571-70.857-40.571-7.429 0-50.286 57.143-56 65.714-5.714-0.571-11.429-1.143-17.143-1.143s-11.429 0.571-17.143 1.143c-5.714-8.571-48.571-65.714-56-65.714-2.857 0-64 36.571-70.857 40.571-1.714 1.143-2.286 2.857-2.286 4 0 9.714 24 67.429 29.143 78.857-6.857 9.143-12.571 18.857-17.143 29.714-11.429 1.143-85.143 9.143-85.143 17.714v80c0 8.571 73.714 16.571 85.143 17.714 4.571 10.286 10.286 20.571 17.143 29.714-5.143 11.429-29.143 69.143-29.143 78.857 0 1.143 0.571 2.857 2.286 4 6.857 3.429 68 40 70.857 40 7.429 0 50.286-56.571 56-65.143 5.714 0.571 11.429 1.143 17.143 1.143s11.429-0.571 17.143-1.143c16 22.286 33.143 44.571 52.571 64l3.429 1.143c2.857 0 64-36 70.857-40 1.714-1.143 2.286-2.857 2.286-4 0-10.286-24-67.429-29.143-78.857 6.857-9.143 12.571-19.429 17.143-29.714 11.429-1.143 85.143-9.143 85.143-17.714z" />
<glyph unicode="&#xe932;" glyph-name="files" d="M543.488 446.496h-256v-28.992h256v28.992zM543.488 350.496h-256v-31.008h256v31.008zM384.512 831.488v-96.512h-97.024v-96.512h-94.496v-606.016h447.008v96.992h94.496v94.016h96.512v608h-446.496zM608.992 63.488h-384.992v546.016h384.992v-546.016zM703.488 158.496h-63.488v480h-321.504v65.504h384.992v-545.504zM800 254.496h-65.504v480.512h-319.008v65.504h384.512v-546.016zM543.488 159.008h-256v-31.008h256v31.008zM543.488 255.488h-256v-31.008h256v31.008zM543.968 543.488h-256v-32h256v32z" />
<glyph unicode="&#xe933;" glyph-name="tiktok" d="M534.613 959.147c55.893 0.853 111.36 0.427 166.827 0.853 3.413-65.28 26.88-131.84 74.667-177.92 47.787-47.36 115.2-69.12 180.907-76.373v-171.947c-61.44 2.133-123.307 14.933-179.2 41.387-24.32 11.093-46.933 25.173-69.12 39.68-0.427-124.587 0.427-249.173-0.853-373.333-3.413-59.733-23.040-119.040-57.6-168.107-55.893-81.92-152.747-135.253-252.16-136.96-61.013-3.413-122.027 13.227-174.080 43.947-86.187 50.773-146.773 143.787-155.733 243.627-0.853 21.333-1.28 42.667-0.427 63.573 7.68 81.067 47.787 158.72 110.080 211.627 70.827 61.44 169.813 90.88 262.4 73.387 0.853-63.147-1.707-126.293-1.707-189.44-42.24 13.653-91.733 9.813-128.853-15.787-26.88-17.493-47.36-44.373-58.027-74.667-8.96-21.76-6.4-45.653-5.973-68.693 10.24-69.973 77.653-128.853 149.333-122.453 47.787 0.427 93.44 28.16 118.187 68.693 8.107 14.080 17.067 28.587 17.493 45.227 4.267 76.373 2.56 152.32 2.987 228.693 0.427 171.947-0.427 343.467 0.853 514.987z" />
<glyph unicode="&#xe934;" glyph-name="user" d="M0-64v96c0 143.488 180.768 197.728 419.168 219.584-52.352 32.448-93.44 123.648-114.848 196.48-0.096 0-0.192-0.064-0.32-0.064-2.176 0-48 57.312-48 128 0 62.016-4.416 113.728 32.224 125.44-0.032 0.864-0.224 1.696-0.224 2.56 0 78.624 40.672 147.52 101.984 187.488 15.84 39.52 64.128 68.512 122.016 68.512s106.176-28.992 122.016-68.512c61.312-39.968 101.984-108.864 101.984-187.488 0-0.864-0.192-1.696-0.224-2.56 36.64-11.712 32.224-63.424 32.224-125.44 0-70.688-50.816-128-48-128-0.128 0-0.224 0.064-0.32 0.064-21.408-72.8-62.496-164.032-114.848-196.48 238.4-21.856 419.168-74.080 419.168-219.584v-96h-1024z" />
<glyph unicode="&#xe935;" glyph-name="user1" horiz-adv-x="731" d="M731.429 151.428c0-83.429-54.857-151.429-121.714-151.429h-488c-66.857 0-121.714 68-121.714 151.429 0 150.286 37.143 324 186.857 324 46.286-45.143 109.143-73.143 178.857-73.143s132.571 28 178.857 73.143c149.714 0 186.857-173.714 186.857-324zM585.143 658.286c0-121.143-98.286-219.429-219.429-219.429s-219.429 98.286-219.429 219.429 98.286 219.429 219.429 219.429 219.429-98.286 219.429-219.429z" />
<glyph unicode="&#xe936;" glyph-name="messenger" d="M0 463.36c0 285.44 223.573 496.64 512 496.64s512-211.2 512-496.64-223.573-496.64-512-496.64c-51.627 0-101.547 6.827-148.053 19.627-3.193 0.894-6.86 1.408-10.647 1.408-6.032 0-11.76-1.304-16.917-3.646l0.257 0.104-101.973-44.8c-4.899-2.236-10.625-3.54-16.656-3.54-22.216 0-40.301 17.686-40.942 39.747l-0.001 0.059-2.987 91.307c-0.5 11.541-5.653 21.787-13.617 28.981l-0.036 0.032c-98.714 89.298-160.47 217.866-160.47 360.857 0 2.286 0.016 4.569 0.047 6.848l-0.004-0.345zM354.987 556.8l-150.187-238.933c-14.933-22.613 13.653-48.64 34.987-32l161.707 122.453c11.093 8.533 25.6 8.533 37.12 0l119.467-89.6c35.84-26.88 87.040-17.067 110.933 20.48l150.187 238.933c14.933 22.613-13.653 48.213-34.987 32l-161.707-122.453c-10.667-8.533-25.6-8.533-36.693 0l-119.467 89.6c-12.716 9.688-28.823 15.521-46.293 15.521-27.292 0-51.26-14.236-64.881-35.688l-0.186-0.313z" />
<glyph unicode="&#xe937;" glyph-name="user-o" horiz-adv-x="878" d="M686.286 502.857c80.571-23.429 191.429-102.857 191.429-362.857 0-117.714-87.429-213.143-194.857-213.143h-488c-107.429 0-194.857 95.429-194.857 213.143 0 260 110.857 339.429 191.429 362.857-28.571 45.143-45.143 98.286-45.143 155.429 0 161.143 131.429 292.571 292.571 292.571s292.571-131.429 292.571-292.571c0-57.143-16.571-110.286-45.143-155.429zM438.857 877.714c-121.143 0-219.429-98.286-219.429-219.429s98.286-219.429 219.429-219.429 219.429 98.286 219.429 219.429-98.286 219.429-219.429 219.429zM682.857 0c66.857 0 121.714 62.286 121.714 140 0 180-60.571 292.571-173.714 298.286-51.429-45.143-118.286-72.571-192-72.571s-140.571 27.429-192 72.571c-113.143-5.714-173.714-118.286-173.714-298.286 0-77.714 54.857-140 121.714-140h488z" />
<glyph unicode="&#xe938;" glyph-name="sign-out" horiz-adv-x="896" d="M365.714 128c0-16 7.429-54.857-18.286-54.857h-182.857c-90.857 0-164.571 73.714-164.571 164.571v402.286c0 90.857 73.714 164.571 164.571 164.571h182.857c9.714 0 18.286-8.571 18.286-18.286 0-16 7.429-54.857-18.286-54.857h-182.857c-50.286 0-91.429-41.143-91.429-91.429v-402.286c0-50.286 41.143-91.429 91.429-91.429h164.571c14.286 0 36.571 2.857 36.571-18.286zM896 438.857c0-9.714-4-18.857-10.857-25.714l-310.857-310.857c-6.857-6.857-16-10.857-25.714-10.857-20 0-36.571 16.571-36.571 36.571v164.571h-256c-20 0-36.571 16.571-36.571 36.571v219.429c0 20 16.571 36.571 36.571 36.571h256v164.571c0 20 16.571 36.571 36.571 36.571 9.714 0 18.857-4 25.714-10.857l310.857-310.857c6.857-6.857 10.857-16 10.857-25.714z" />
<glyph unicode="&#xe939;" glyph-name="file-empty" d="M917.806 730.924c-22.212 30.292-53.174 65.7-87.178 99.704s-69.412 64.964-99.704 87.178c-51.574 37.82-76.592 42.194-90.924 42.194h-496c-44.112 0-80-35.888-80-80v-864c0-44.112 35.888-80 80-80h736c44.112 0 80 35.888 80 80v624c0 14.332-4.372 39.35-42.194 90.924zM785.374 785.374c30.7-30.7 54.8-58.398 72.58-81.374h-153.954v153.946c22.984-17.78 50.678-41.878 81.374-72.572zM896 16c0-8.672-7.328-16-16-16h-736c-8.672 0-16 7.328-16 16v864c0 8.672 7.328 16 16 16 0 0 495.956 0.002 496 0v-224c0-17.672 14.326-32 32-32h224v-624z" />
<glyph unicode="&#xe93a;" glyph-name="cart1" d="M384 32c0-53.019-42.981-96-96-96s-96 42.981-96 96c0 53.019 42.981 96 96 96s96-42.981 96-96zM1024 32c0-53.019-42.981-96-96-96s-96 42.981-96 96c0 53.019 42.981 96 96 96s96-42.981 96-96zM1024 448v384h-768c0 35.346-28.654 64-64 64h-192v-64h128l48.074-412.054c-29.294-23.458-48.074-59.5-48.074-99.946 0-70.696 57.308-128 128-128h768v64h-768c-35.346 0-64 28.654-64 64 0 0.218 0.014 0.436 0.016 0.656l831.984 127.344z" />
<glyph unicode="&#xe93b;" d="M512 803.6c-204.8 0-363.6-150-363.6-352.8 0-106 43.4-197.6 114-260.8 5.839-5.133 9.616-12.491 9.998-20.735l0.002-0.065 2-64.6c0.549-15.695 13.405-28.21 29.183-28.21 4.201 0 8.194 0.887 11.803 2.484l-0.187-0.074 72 32c3.455 1.57 7.493 2.484 11.744 2.484 2.797 0 5.502-0.396 8.061-1.135l-0.205 0.051c31.277-8.89 67.199-14.001 104.315-14.001 0.311 0 0.622 0 0.933 0.001h-0.048c204.8 0 363.6 150 363.6 352.6s-158.8 352.8-363.6 352.8z" />
<glyph unicode="&#xe93c;" d="M293.6 347.8l106.8 169.4c9.822 15.439 26.842 25.534 46.221 25.534 12.362 0 23.764-4.108 32.916-11.034l-0.137 0.099 85-63.8c3.593-2.656 8.11-4.252 13-4.252s9.407 1.595 13.060 4.294l-0.060-0.042 115 87.2c15.2 11.6 35.2-6.8 25-23l-106.8-169.4c-9.832-15.382-26.821-25.433-46.157-25.433-12.302 0-23.654 4.069-32.783 10.934l0.14-0.101-85 63.8c-3.631 2.747-8.222 4.4-13.2 4.4s-9.569-1.653-13.255-4.44l0.055 0.040-114.8-87.2c-15.2-11.6-35.2 6.8-25 23z" />
<glyph unicode="&#xe93d;" glyph-name="search3" d="M621.668 306.332c-44.476-31.692-98.895-50.332-157.668-50.332-150.221 0-272 121.779-272 272s121.779 272 272 272c150.221 0 272-121.779 272-272 0-58.773-18.641-113.192-50.332-157.668l178.714-178.714c17.606-17.606 17.46-45.778-0.006-63.244l-0.75-0.75c-17.421-17.421-45.781-17.469-63.244-0.006l-178.714 178.714zM464 320c114.875 0 208 93.125 208 208s-93.125 208-208 208c-114.875 0-208-93.125-208-208s93.125-208 208-208v0z" />
<glyph unicode="&#xe93e;" glyph-name="home" horiz-adv-x="951" d="M804.571 384v-274.286c0-20-16.571-36.571-36.571-36.571h-219.429v219.429h-146.286v-219.429h-219.429c-20 0-36.571 16.571-36.571 36.571v274.286c0 1.143 0.571 2.286 0.571 3.429l328.571 270.857 328.571-270.857c0.571-1.143 0.571-2.286 0.571-3.429zM932 423.428l-35.429-42.286c-2.857-3.429-7.429-5.714-12-6.286h-1.714c-4.571 0-8.571 1.143-12 4l-395.429 329.714-395.429-329.714c-4-2.857-8.571-4.571-13.714-4-4.571 0.571-9.143 2.857-12 6.286l-35.429 42.286c-6.286 7.429-5.143 19.429 2.286 25.714l410.857 342.286c24 20 62.857 20 86.857 0l139.429-116.571v111.429c0 10.286 8 18.286 18.286 18.286h109.714c10.286 0 18.286-8 18.286-18.286v-233.143l125.143-104c7.429-6.286 8.571-18.286 2.286-25.714z" />
<glyph unicode="&#xe93f;" glyph-name="apps" d="M682 84.667v172h172v-172h-172zM682 340.667v172h172v-172h-172zM426 596.667v172h172v-172h-172zM682 768.667h172v-172h-172v172zM426 340.667v172h172v-172h-172zM170 340.667v172h172v-172h-172zM170 84.667v172h172v-172h-172zM426 84.667v172h172v-172h-172zM170 596.667v172h172v-172h-172z" />
<glyph unicode="&#xe942;" glyph-name="phone" d="M640 640c64-64 128-64 128-128s-64-128-128-192-128-128-192-128-64 64-128 128-256-128-256-192 192-192 192-192c128 0 387.5 131.5 512 256s256 384 256 512c0 0-128 192-192 192s-256-192-192-256z" />
<glyph unicode="&#xe947;" glyph-name="location" d="M512 960c-176.732 0-320-143.268-320-320 0-320 320-704 320-704s320 384 320 704c0 176.732-143.27 320-320 320zM512 448c-106.040 0-192 85.96-192 192s85.96 192 192 192 192-85.96 192-192-85.96-192-192-192z" />
<glyph unicode="&#xe986;" glyph-name="search2" d="M992.262 88.604l-242.552 206.294c-25.074 22.566-51.89 32.926-73.552 31.926 57.256 67.068 91.842 154.078 91.842 249.176 0 212.078-171.922 384-384 384-212.076 0-384-171.922-384-384s171.922-384 384-384c95.098 0 182.108 34.586 249.176 91.844-1-21.662 9.36-48.478 31.926-73.552l206.294-242.552c35.322-39.246 93.022-42.554 128.22-7.356s31.892 92.898-7.354 128.22zM384 320c-141.384 0-256 114.616-256 256s114.616 256 256 256 256-114.616 256-256-114.614-256-256-256z" />
<glyph unicode="&#xe9d4;" glyph-name="sun1" d="M512 128c35.346 0 64-28.654 64-64v-64c0-35.346-28.654-64-64-64s-64 28.654-64 64v64c0 35.346 28.654 64 64 64zM512 768c-35.346 0-64 28.654-64 64v64c0 35.346 28.654 64 64 64s64-28.654 64-64v-64c0-35.346-28.654-64-64-64zM960 512c35.346 0 64-28.654 64-64s-28.654-64-64-64h-64c-35.348 0-64 28.654-64 64s28.652 64 64 64h64zM192 448c0-35.346-28.654-64-64-64h-64c-35.346 0-64 28.654-64 64s28.654 64 64 64h64c35.346 0 64-28.654 64-64zM828.784 221.726l45.256-45.258c24.992-24.99 24.992-65.516 0-90.508-24.994-24.992-65.518-24.992-90.51 0l-45.256 45.256c-24.992 24.99-24.992 65.516 0 90.51 24.994 24.992 65.518 24.992 90.51 0zM195.216 674.274l-45.256 45.256c-24.994 24.994-24.994 65.516 0 90.51s65.516 24.994 90.51 0l45.256-45.256c24.994-24.994 24.994-65.516 0-90.51s-65.516-24.994-90.51 0zM828.784 674.274c-24.992-24.992-65.516-24.992-90.51 0-24.992 24.994-24.992 65.516 0 90.51l45.256 45.254c24.992 24.994 65.516 24.994 90.51 0 24.992-24.994 24.992-65.516 0-90.51l-45.256-45.254zM195.216 221.726c24.992 24.992 65.518 24.992 90.508 0 24.994-24.994 24.994-65.52 0-90.51l-45.254-45.256c-24.994-24.992-65.516-24.992-90.51 0s-24.994 65.518 0 90.508l45.256 45.258zM512 704c-141.384 0-256-114.616-256-256 0-141.382 114.616-256 256-256 141.382 0 256 114.618 256 256 0 141.384-114.616 256-256 256zM512 288c-88.366 0-160 71.634-160 160s71.634 160 160 160 160-71.634 160-160-71.634-160-160-160z" />
<glyph unicode="&#xe9d9;" glyph-name="star-full" d="M1024 562.95l-353.78 51.408-158.22 320.582-158.216-320.582-353.784-51.408 256-249.538-60.432-352.352 316.432 166.358 316.432-166.358-60.434 352.352 256.002 249.538z" />
<glyph unicode="&#xe9da;" glyph-name="heart" d="M755.188 896c-107.63 0-200.258-87.554-243.164-179-42.938 91.444-135.578 179-243.216 179-148.382 0-268.808-120.44-268.808-268.832 0-301.846 304.5-380.994 512.022-679.418 196.154 296.576 511.978 387.206 511.978 679.418 0 148.392-120.43 268.832-268.812 268.832z" />
<glyph unicode="&#xea3c;" glyph-name="arrow-right2" d="M621.254 82.746l320 320c24.994 24.992 24.994 65.516 0 90.51l-320 320c-24.994 24.992-65.516 24.992-90.51 0-24.994-24.994-24.994-65.516 0-90.51l210.746-210.746h-613.49c-35.346 0-64-28.654-64-64s28.654-64 64-64h613.49l-210.746-210.746c-12.496-12.496-18.744-28.876-18.744-45.254s6.248-32.758 18.744-45.254c24.994-24.994 65.516-24.994 90.51 0z" />
<glyph unicode="&#xea88;" glyph-name="google3" d="M522.2 521.2v-175.6h290.4c-11.8-75.4-87.8-220.8-290.4-220.8-174.8 0-317.4 144.8-317.4 323.2s142.6 323.2 317.4 323.2c99.4 0 166-42.4 204-79l139 133.8c-89.2 83.6-204.8 134-343 134-283 0-512-229-512-512s229-512 512-512c295.4 0 491.6 207.8 491.6 500.2 0 33.6-3.6 59.2-8 84.8l-483.6 0.2z" />
<glyph unicode="&#xea90;" glyph-name="facebook" d="M608 768h160v192h-160c-123.514 0-224-100.486-224-224v-96h-128v-192h128v-512h192v512h160l32 192h-192v96c0 17.346 14.654 32 32 32z" />
<glyph unicode="&#xea92;" glyph-name="instagram" d="M512 867.8c136.8 0 153-0.6 206.8-3 50-2.2 77-10.6 95-17.6 23.8-9.2 41-20.4 58.8-38.2 18-18 29-35 38.4-58.8 7-18 15.4-45.2 17.6-95 2.4-54 3-70.2 3-206.8s-0.6-153-3-206.8c-2.2-50-10.6-77-17.6-95-9.2-23.8-20.4-41-38.2-58.8-18-18-35-29-58.8-38.4-18-7-45.2-15.4-95-17.6-54-2.4-70.2-3-206.8-3s-153 0.6-206.8 3c-50 2.2-77 10.6-95 17.6-23.8 9.2-41 20.4-58.8 38.2-18 18-29 35-38.4 58.8-7 18-15.4 45.2-17.6 95-2.4 54-3 70.2-3 206.8s0.6 153 3 206.8c2.2 50 10.6 77 17.6 95 9.2 23.8 20.4 41 38.2 58.8 18 18 35 29 58.8 38.4 18 7 45.2 15.4 95 17.6 53.8 2.4 70 3 206.8 3zM512 960c-139 0-156.4-0.6-211-3-54.4-2.4-91.8-11.2-124.2-23.8-33.8-13.2-62.4-30.6-90.8-59.2-28.6-28.4-46-57-59.2-90.6-12.6-32.6-21.4-69.8-23.8-124.2-2.4-54.8-3-72.2-3-211.2s0.6-156.4 3-211c2.4-54.4 11.2-91.8 23.8-124.2 13.2-33.8 30.6-62.4 59.2-90.8 28.4-28.4 57-46 90.6-59 32.6-12.6 69.8-21.4 124.2-23.8 54.6-2.4 72-3 211-3s156.4 0.6 211 3c54.4 2.4 91.8 11.2 124.2 23.8 33.6 13 62.2 30.6 90.6 59s46 57 59 90.6c12.6 32.6 21.4 69.8 23.8 124.2 2.4 54.6 3 72 3 211s-0.6 156.4-3 211c-2.4 54.4-11.2 91.8-23.8 124.2-12.6 34-30 62.6-58.6 91-28.4 28.4-57 46-90.6 59-32.6 12.6-69.8 21.4-124.2 23.8-54.8 2.6-72.2 3.2-211.2 3.2v0zM512 711c-145.2 0-263-117.8-263-263s117.8-263 263-263 263 117.8 263 263c0 145.2-117.8 263-263 263zM512 277.4c-94.2 0-170.6 76.4-170.6 170.6s76.4 170.6 170.6 170.6c94.2 0 170.6-76.4 170.6-170.6s-76.4-170.6-170.6-170.6zM846.8 721.4c0-33.91-27.49-61.4-61.4-61.4s-61.4 27.49-61.4 61.4c0 33.91 27.49 61.4 61.4 61.4s61.4-27.49 61.4-61.4z" />
<glyph unicode="&#xea93;" glyph-name="whatsapp" d="M873 811.2c-95.8 96-223.2 148.8-359 148.8-279.6 0-507.2-227.6-507.2-507.4 0-89.4 23.4-176.8 67.8-253.6l-72-263 269 70.6c74.2-40.4 157.6-61.8 242.4-61.8h0.2c0 0 0 0 0 0 279.6 0 507.4 227.6 507.4 507.4 0 135.6-52.8 263-148.6 359zM514.2 30.4v0c-75.8 0-150 20.4-214.8 58.8l-15.4 9.2-159.6-41.8 42.6 155.6-10 16c-42.4 67-64.6 144.6-64.6 224.4 0 232.6 189.2 421.8 422 421.8 112.6 0 218.6-44 298.2-123.6 79.6-79.8 123.4-185.6 123.4-298.4-0.2-232.8-189.4-422-421.8-422zM745.4 346.4c-12.6 6.4-75 37-86.6 41.2s-20 6.4-28.6-6.4c-8.4-12.6-32.8-41.2-40.2-49.8-7.4-8.4-14.8-9.6-27.4-3.2s-53.6 19.8-102 63c-37.6 33.6-63.2 75.2-70.6 87.8s-0.8 19.6 5.6 25.8c5.8 5.6 12.6 14.8 19 22.2s8.4 12.6 12.6 21.2c4.2 8.4 2.2 15.8-1 22.2s-28.6 68.8-39 94.2c-10.2 24.8-20.8 21.4-28.6 21.8-7.4 0.4-15.8 0.4-24.2 0.4s-22.2-3.2-33.8-15.8c-11.6-12.6-44.4-43.4-44.4-105.8s45.4-122.6 51.8-131.2c6.4-8.4 89.4-136.6 216.6-191.4 30.2-13 53.8-20.8 72.2-26.8 30.4-9.6 58-8.2 79.8-5 24.4 3.6 75 30.6 85.6 60.2s10.6 55 7.4 60.2c-3 5.6-11.4 8.8-24.2 15.2z" />
<glyph unicode="&#xea96;" glyph-name="twitter" d="M1024 733.6c-37.6-16.8-78.2-28-120.6-33 43.4 26 76.6 67.2 92.4 116.2-40.6-24-85.6-41.6-133.4-51-38.4 40.8-93 66.2-153.4 66.2-116 0-210-94-210-210 0-16.4 1.8-32.4 5.4-47.8-174.6 8.8-329.4 92.4-433 219.6-18-31-28.4-67.2-28.4-105.6 0-72.8 37-137.2 93.4-174.8-34.4 1-66.8 10.6-95.2 26.2 0-0.8 0-1.8 0-2.6 0-101.8 72.4-186.8 168.6-206-17.6-4.8-36.2-7.4-55.4-7.4-13.6 0-26.6 1.4-39.6 3.8 26.8-83.4 104.4-144.2 196.2-146-72-56.4-162.4-90-261-90-17 0-33.6 1-50.2 3 93.2-59.8 203.6-94.4 322.2-94.4 386.4 0 597.8 320.2 597.8 597.8 0 9.2-0.2 18.2-0.6 27.2 41 29.4 76.6 66.4 104.8 108.6z" />
<glyph unicode="&#xea9d;" glyph-name="youtube1" d="M1013.8 652.8c0 0-10 70.6-40.8 101.6-39 40.8-82.6 41-102.6 43.4-143.2 10.4-358.2 10.4-358.2 10.4h-0.4c0 0-215 0-358.2-10.4-20-2.4-63.6-2.6-102.6-43.4-30.8-31-40.6-101.6-40.6-101.6s-10.2-82.8-10.2-165.8v-77.6c0-82.8 10.2-165.8 10.2-165.8s10-70.6 40.6-101.6c39-40.8 90.2-39.4 113-43.8 82-7.8 348.2-10.2 348.2-10.2s215.2 0.4 358.4 10.6c20 2.4 63.6 2.6 102.6 43.4 30.8 31 40.8 101.6 40.8 101.6s10.2 82.8 10.2 165.8v77.6c-0.2 82.8-10.4 165.8-10.4 165.8zM406.2 315.2v287.8l276.6-144.4-276.6-143.4z" />
<glyph unicode="&#xeac9;" glyph-name="linkedin" d="M928 960h-832c-52.8 0-96-43.2-96-96v-832c0-52.8 43.2-96 96-96h832c52.8 0 96 43.2 96 96v832c0 52.8-43.2 96-96 96zM384 128h-128v448h128v-448zM320 640c-35.4 0-64 28.6-64 64s28.6 64 64 64c35.4 0 64-28.6 64-64s-28.6-64-64-64zM832 128h-128v256c0 35.4-28.6 64-64 64s-64-28.6-64-64v-256h-128v448h128v-79.4c26.4 36.2 66.8 79.4 112 79.4 79.6 0 144-71.6 144-160v-288z" />
<glyph unicode="&#xeb1b;" glyph-name="menu1" d="M0 819.2h1024v-102.4h-1024v102.4zM0 512h1024v-102.4h-1024v102.4zM0 204.8h1024v-102.4h-1024v102.4z" />
<glyph unicode="&#xeb1c;" glyph-name="menu5" d="M128 384h768c23.552 0 42.667 19.115 42.667 42.667s-19.115 42.667-42.667 42.667h-768c-23.552 0-42.667-19.115-42.667-42.667s19.115-42.667 42.667-42.667zM128 640h768c23.552 0 42.667 19.115 42.667 42.667s-19.115 42.667-42.667 42.667h-768c-23.552 0-42.667-19.115-42.667-42.667s19.115-42.667 42.667-42.667zM128 128h768c23.552 0 42.667 19.115 42.667 42.667s-19.115 42.667-42.667 42.667h-768c-23.552 0-42.667-19.115-42.667-42.667s19.115-42.667 42.667-42.667z" />
</font>
</defs>
</svg>
